<svg width="63" height="93" viewBox="0 0 63 93" fill="none" xmlns="http://www.w3.org/2000/svg">
<path d="M17.272 92.28C11.2987 92.28 6.98933 91.512 4.344 89.976C1.69867 88.44 0.376 87.2453 0.376 86.392C0.376 85.9653 0.504 85.5813 0.76 85.24C1.016 84.8133 1.4 84.5147 1.912 84.344C3.27733 85.624 5.112 86.776 7.416 87.8C9.72 88.7387 13.0907 89.208 17.528 89.208C24.0987 89.208 28.8347 87.4587 31.736 83.96C34.6373 80.376 36.088 75.8533 36.088 70.392C36.088 66.04 35.32 62.2 33.784 58.872C32.248 55.4587 29.4747 51.7893 25.464 47.864L10.488 34.04C7.58667 31.1387 5.24 28.3227 3.448 25.592C1.74133 22.776 0.888 19.6613 0.888 16.248C0.888 11.5547 2.72267 7.71466 6.392 4.728C10.0613 1.656 15.1387 0.119995 21.624 0.119995C26.9147 0.119995 30.7973 0.717328 33.272 1.91199C35.832 3.02133 37.112 4.04533 37.112 4.98399C37.112 5.32533 36.984 5.70933 36.728 6.13599C36.5573 6.56266 36.3013 6.90399 35.96 7.16C34.8507 6.22133 33.016 5.32533 30.456 4.47199C27.9813 3.53333 24.7813 3.064 20.856 3.064C15.8213 3.064 11.7253 4.30133 8.568 6.77599C5.496 9.16533 3.96 12.28 3.96 16.12C3.96 19.1067 4.77067 21.7947 6.392 24.184C8.01333 26.5733 9.976 28.92 12.28 31.224L29.048 46.968C32.888 50.808 35.5333 54.4347 36.984 57.848C38.4347 61.2613 39.16 65.2293 39.16 69.752C39.16 74.1893 38.3493 78.1147 36.728 81.528C35.192 84.9413 32.8027 87.5867 29.56 89.464C26.4027 91.3413 22.3067 92.28 17.272 92.28ZM58.976 91V2.67999C58.976 2.25333 59.0187 1.95466 59.104 1.784C59.1893 1.61333 59.4453 1.52799 59.872 1.52799C60.2987 1.44266 61.024 1.39999 62.048 1.39999V89.72C62.048 90.1467 62.0053 90.4453 61.92 90.616C61.8347 90.7867 61.5787 90.9147 61.152 91C60.7253 91 60 91 58.976 91ZM20.704 91V2.67999C20.704 2.25333 20.7467 1.95466 20.832 1.784C20.9173 1.61333 21.1733 1.52799 21.6 1.52799C22.112 1.44266 22.8373 1.39999 23.776 1.39999V89.72C23.776 90.1467 23.7333 90.4453 23.648 90.616C23.5627 90.7867 23.3067 90.9147 22.88 91C22.4533 91 21.728 91 20.704 91ZM22.752 43.256V40.184H60.512V43.256H22.752Z" fill="white"/>
</svg>
